<mxfile host="app.diagrams.net" agent="Mozilla/5.0 (Macintosh; Intel Mac OS X 10.15; rv:140.0) Gecko/20100101 Firefox/140.0" version="28.0.4">
  <diagram name="Page-1" id="p9O1bbmvmOPwoyHnhKzd">
    <mxGraphModel dx="2674" dy="1184" grid="1" gridSize="10" guides="1" tooltips="1" connect="1" arrows="1" fold="1" page="1" pageScale="1" pageWidth="850" pageHeight="1100" math="0" shadow="0">
      <root>
        <mxCell id="0" />
        <mxCell id="1" parent="0" />
        <mxCell id="x2WDkMl_rVH3rUGuqPoA-61" value="Server computer processing" style="rounded=1;whiteSpace=wrap;html=1;labelPosition=center;verticalLabelPosition=top;align=center;verticalAlign=bottom;" vertex="1" parent="1">
          <mxGeometry x="170" y="110" width="690" height="420" as="geometry" />
        </mxCell>
        <mxCell id="x2WDkMl_rVH3rUGuqPoA-60" value="Remote large AI model (Cloudflare Worker API)" style="rounded=1;whiteSpace=wrap;html=1;labelPosition=center;verticalLabelPosition=top;align=center;verticalAlign=bottom;" vertex="1" parent="1">
          <mxGeometry x="495" y="620" width="390" height="240" as="geometry" />
        </mxCell>
        <mxCell id="x2WDkMl_rVH3rUGuqPoA-25" style="edgeStyle=none;shape=connector;rounded=0;orthogonalLoop=1;jettySize=auto;html=1;exitX=1;exitY=0.5;exitDx=0;exitDy=0;strokeColor=default;align=center;verticalAlign=middle;fontFamily=Helvetica;fontSize=11;fontColor=default;labelBackgroundColor=default;endArrow=classic;entryX=0;entryY=0.25;entryDx=0;entryDy=0;" edge="1" parent="1" source="x2WDkMl_rVH3rUGuqPoA-1" target="x2WDkMl_rVH3rUGuqPoA-4">
          <mxGeometry relative="1" as="geometry">
            <mxPoint x="320" y="380" as="targetPoint" />
          </mxGeometry>
        </mxCell>
        <mxCell id="x2WDkMl_rVH3rUGuqPoA-11" style="rounded=0;orthogonalLoop=1;jettySize=auto;html=1;exitX=0.5;exitY=1;exitDx=0;exitDy=0;" edge="1" parent="1" source="x2WDkMl_rVH3rUGuqPoA-3" target="x2WDkMl_rVH3rUGuqPoA-4">
          <mxGeometry relative="1" as="geometry" />
        </mxCell>
        <mxCell id="x2WDkMl_rVH3rUGuqPoA-3" value="Regulations" style="rounded=1;whiteSpace=wrap;html=1;" vertex="1" parent="1">
          <mxGeometry x="230" y="140" width="120" height="60" as="geometry" />
        </mxCell>
        <mxCell id="x2WDkMl_rVH3rUGuqPoA-21" style="edgeStyle=none;shape=connector;rounded=0;orthogonalLoop=1;jettySize=auto;html=1;exitX=0.5;exitY=0;exitDx=0;exitDy=0;entryX=0.25;entryY=1;entryDx=0;entryDy=0;strokeColor=default;align=center;verticalAlign=middle;fontFamily=Helvetica;fontSize=11;fontColor=default;labelBackgroundColor=default;endArrow=classic;" edge="1" parent="1" source="x2WDkMl_rVH3rUGuqPoA-4" target="x2WDkMl_rVH3rUGuqPoA-8">
          <mxGeometry relative="1" as="geometry" />
        </mxCell>
        <mxCell id="x2WDkMl_rVH3rUGuqPoA-38" style="edgeStyle=none;shape=connector;rounded=0;orthogonalLoop=1;jettySize=auto;html=1;exitX=0.5;exitY=1;exitDx=0;exitDy=0;entryX=1;entryY=0.5;entryDx=0;entryDy=0;strokeColor=default;align=center;verticalAlign=middle;fontFamily=Helvetica;fontSize=11;fontColor=default;labelBackgroundColor=default;endArrow=classic;" edge="1" parent="1" source="x2WDkMl_rVH3rUGuqPoA-4" target="x2WDkMl_rVH3rUGuqPoA-2">
          <mxGeometry relative="1" as="geometry" />
        </mxCell>
        <mxCell id="x2WDkMl_rVH3rUGuqPoA-46" style="edgeStyle=none;shape=connector;rounded=0;orthogonalLoop=1;jettySize=auto;html=1;exitX=1;exitY=0.5;exitDx=0;exitDy=0;entryX=0;entryY=0.5;entryDx=0;entryDy=0;strokeColor=default;align=center;verticalAlign=middle;fontFamily=Helvetica;fontSize=11;fontColor=default;labelBackgroundColor=default;endArrow=classic;" edge="1" parent="1" source="x2WDkMl_rVH3rUGuqPoA-4" target="x2WDkMl_rVH3rUGuqPoA-45">
          <mxGeometry relative="1" as="geometry" />
        </mxCell>
        <mxCell id="x2WDkMl_rVH3rUGuqPoA-4" value="&lt;div&gt;Knowledge graph handling&lt;/div&gt;&lt;div&gt;(LightRAG by HKUDS)&lt;/div&gt;" style="rounded=1;whiteSpace=wrap;html=1;" vertex="1" parent="1">
          <mxGeometry x="300" y="320" width="210" height="150" as="geometry" />
        </mxCell>
        <mxCell id="x2WDkMl_rVH3rUGuqPoA-5" value="&lt;div&gt;Data embedding&lt;/div&gt;&lt;div&gt;(via Cloudflare API)&lt;/div&gt;" style="rounded=1;whiteSpace=wrap;html=1;" vertex="1" parent="1">
          <mxGeometry x="540" y="650" width="120" height="60" as="geometry" />
        </mxCell>
        <mxCell id="x2WDkMl_rVH3rUGuqPoA-49" style="edgeStyle=none;shape=connector;rounded=0;orthogonalLoop=1;jettySize=auto;html=1;exitX=0.25;exitY=0;exitDx=0;exitDy=0;entryX=0.75;entryY=1;entryDx=0;entryDy=0;strokeColor=default;align=center;verticalAlign=middle;fontFamily=Helvetica;fontSize=11;fontColor=default;labelBackgroundColor=default;endArrow=classic;" edge="1" parent="1" source="x2WDkMl_rVH3rUGuqPoA-7" target="x2WDkMl_rVH3rUGuqPoA-45">
          <mxGeometry relative="1" as="geometry" />
        </mxCell>
        <mxCell id="x2WDkMl_rVH3rUGuqPoA-7" value="&lt;div&gt;GPT AI&lt;/div&gt;&lt;div&gt;(via Cloudflare API)&lt;/div&gt;" style="rounded=1;whiteSpace=wrap;html=1;" vertex="1" parent="1">
          <mxGeometry x="710" y="650" width="120" height="60" as="geometry" />
        </mxCell>
        <mxCell id="x2WDkMl_rVH3rUGuqPoA-22" style="edgeStyle=none;shape=connector;rounded=0;orthogonalLoop=1;jettySize=auto;html=1;exitX=0.75;exitY=1;exitDx=0;exitDy=0;entryX=0.75;entryY=0;entryDx=0;entryDy=0;strokeColor=default;align=center;verticalAlign=middle;fontFamily=Helvetica;fontSize=11;fontColor=default;labelBackgroundColor=default;endArrow=classic;" edge="1" parent="1" source="x2WDkMl_rVH3rUGuqPoA-8" target="x2WDkMl_rVH3rUGuqPoA-4">
          <mxGeometry relative="1" as="geometry" />
        </mxCell>
        <mxCell id="x2WDkMl_rVH3rUGuqPoA-8" value="&lt;div&gt;regulation as graph&lt;/div&gt;&lt;div&gt;(graphml database)&lt;/div&gt;" style="rounded=1;whiteSpace=wrap;html=1;" vertex="1" parent="1">
          <mxGeometry x="400" y="130" width="120" height="60" as="geometry" />
        </mxCell>
        <mxCell id="x2WDkMl_rVH3rUGuqPoA-26" style="edgeStyle=none;shape=connector;rounded=0;orthogonalLoop=1;jettySize=auto;html=1;exitX=1;exitY=0.5;exitDx=0;exitDy=0;strokeColor=default;align=center;verticalAlign=middle;fontFamily=Helvetica;fontSize=11;fontColor=default;labelBackgroundColor=default;endArrow=classic;" edge="1" parent="1" source="x2WDkMl_rVH3rUGuqPoA-10" target="x2WDkMl_rVH3rUGuqPoA-4">
          <mxGeometry relative="1" as="geometry" />
        </mxCell>
        <mxCell id="x2WDkMl_rVH3rUGuqPoA-36" style="edgeStyle=none;shape=connector;rounded=0;orthogonalLoop=1;jettySize=auto;html=1;exitX=1;exitY=0.5;exitDx=0;exitDy=0;strokeColor=default;align=center;verticalAlign=middle;fontFamily=Helvetica;fontSize=11;fontColor=default;labelBackgroundColor=default;endArrow=classic;entryX=0;entryY=0.5;entryDx=0;entryDy=0;" edge="1" parent="1" source="x2WDkMl_rVH3rUGuqPoA-29" target="x2WDkMl_rVH3rUGuqPoA-3">
          <mxGeometry relative="1" as="geometry" />
        </mxCell>
        <mxCell id="x2WDkMl_rVH3rUGuqPoA-34" value="" style="group" vertex="1" connectable="0" parent="1">
          <mxGeometry x="-190" y="320" width="220" height="480" as="geometry" />
        </mxCell>
        <mxCell id="x2WDkMl_rVH3rUGuqPoA-27" value="user interface" style="rounded=1;whiteSpace=wrap;html=1;labelPosition=center;verticalLabelPosition=top;align=center;verticalAlign=bottom;" vertex="1" parent="x2WDkMl_rVH3rUGuqPoA-34">
          <mxGeometry width="220" height="480" as="geometry" />
        </mxCell>
        <mxCell id="x2WDkMl_rVH3rUGuqPoA-1" value="Input query" style="rounded=1;whiteSpace=wrap;html=1;" vertex="1" parent="x2WDkMl_rVH3rUGuqPoA-34">
          <mxGeometry x="50" y="9.997586206896552" width="140" height="74.48275862068965" as="geometry" />
        </mxCell>
        <mxCell id="x2WDkMl_rVH3rUGuqPoA-10" value="Source document selection" style="rounded=1;whiteSpace=wrap;html=1;" vertex="1" parent="x2WDkMl_rVH3rUGuqPoA-34">
          <mxGeometry x="40" y="120.00413793103449" width="140" height="74.48275862068965" as="geometry" />
        </mxCell>
        <mxCell id="x2WDkMl_rVH3rUGuqPoA-29" value="Source document selection" style="rounded=1;whiteSpace=wrap;html=1;" vertex="1" parent="x2WDkMl_rVH3rUGuqPoA-34">
          <mxGeometry x="50" y="194.48448275862071" width="140" height="74.48275862068965" as="geometry" />
        </mxCell>
        <mxCell id="x2WDkMl_rVH3rUGuqPoA-2" value="Output text" style="rounded=1;whiteSpace=wrap;html=1;" vertex="1" parent="x2WDkMl_rVH3rUGuqPoA-34">
          <mxGeometry x="50" y="300" width="140" height="70" as="geometry" />
        </mxCell>
        <mxCell id="x2WDkMl_rVH3rUGuqPoA-23" style="edgeStyle=none;shape=connector;rounded=0;orthogonalLoop=1;jettySize=auto;html=1;exitX=0.25;exitY=1;exitDx=0;exitDy=0;strokeColor=default;align=center;verticalAlign=middle;fontFamily=Helvetica;fontSize=11;fontColor=default;labelBackgroundColor=default;endArrow=classic;" edge="1" parent="x2WDkMl_rVH3rUGuqPoA-34" source="x2WDkMl_rVH3rUGuqPoA-2" target="x2WDkMl_rVH3rUGuqPoA-2">
          <mxGeometry relative="1" as="geometry" />
        </mxCell>
        <mxCell id="x2WDkMl_rVH3rUGuqPoA-40" value="&lt;div&gt;Cloudflare access management&lt;/div&gt;&lt;div&gt;(API Key and base url)&lt;/div&gt;" style="rounded=1;whiteSpace=wrap;html=1;" vertex="1" parent="x2WDkMl_rVH3rUGuqPoA-34">
          <mxGeometry x="50" y="390" width="140" height="70" as="geometry" />
        </mxCell>
        <mxCell id="x2WDkMl_rVH3rUGuqPoA-42" value="Information to run the API&lt;br&gt;(API key and base URL)" style="rounded=1;whiteSpace=wrap;html=1;" vertex="1" parent="1">
          <mxGeometry x="605" y="730" width="170" height="80" as="geometry" />
        </mxCell>
        <mxCell id="x2WDkMl_rVH3rUGuqPoA-41" style="edgeStyle=none;shape=connector;rounded=0;orthogonalLoop=1;jettySize=auto;html=1;exitX=1;exitY=0.5;exitDx=0;exitDy=0;strokeColor=default;align=center;verticalAlign=middle;fontFamily=Helvetica;fontSize=11;fontColor=default;labelBackgroundColor=default;endArrow=classic;entryX=0;entryY=0.5;entryDx=0;entryDy=0;" edge="1" parent="1" source="x2WDkMl_rVH3rUGuqPoA-40" target="x2WDkMl_rVH3rUGuqPoA-42">
          <mxGeometry relative="1" as="geometry">
            <mxPoint x="300" y="720" as="targetPoint" />
          </mxGeometry>
        </mxCell>
        <mxCell id="x2WDkMl_rVH3rUGuqPoA-47" style="edgeStyle=none;shape=connector;rounded=0;orthogonalLoop=1;jettySize=auto;html=1;exitX=0.25;exitY=1;exitDx=0;exitDy=0;entryX=0.25;entryY=0;entryDx=0;entryDy=0;strokeColor=default;align=center;verticalAlign=middle;fontFamily=Helvetica;fontSize=11;fontColor=default;labelBackgroundColor=default;endArrow=classic;" edge="1" parent="1" source="x2WDkMl_rVH3rUGuqPoA-45" target="x2WDkMl_rVH3rUGuqPoA-5">
          <mxGeometry relative="1" as="geometry" />
        </mxCell>
        <mxCell id="x2WDkMl_rVH3rUGuqPoA-50" style="edgeStyle=none;shape=connector;rounded=0;orthogonalLoop=1;jettySize=auto;html=1;exitX=1;exitY=1;exitDx=0;exitDy=0;entryX=0.75;entryY=0;entryDx=0;entryDy=0;strokeColor=default;align=center;verticalAlign=middle;fontFamily=Helvetica;fontSize=11;fontColor=default;labelBackgroundColor=default;endArrow=classic;" edge="1" parent="1" source="x2WDkMl_rVH3rUGuqPoA-45" target="x2WDkMl_rVH3rUGuqPoA-7">
          <mxGeometry relative="1" as="geometry" />
        </mxCell>
        <mxCell id="x2WDkMl_rVH3rUGuqPoA-45" value="AI Model request controller" style="rounded=1;whiteSpace=wrap;html=1;" vertex="1" parent="1">
          <mxGeometry x="585" y="320" width="210" height="150" as="geometry" />
        </mxCell>
        <mxCell id="x2WDkMl_rVH3rUGuqPoA-48" style="edgeStyle=none;shape=connector;rounded=0;orthogonalLoop=1;jettySize=auto;html=1;exitX=0.75;exitY=0;exitDx=0;exitDy=0;entryX=0.463;entryY=0.978;entryDx=0;entryDy=0;entryPerimeter=0;strokeColor=default;align=center;verticalAlign=middle;fontFamily=Helvetica;fontSize=11;fontColor=default;labelBackgroundColor=default;endArrow=classic;" edge="1" parent="1" source="x2WDkMl_rVH3rUGuqPoA-5" target="x2WDkMl_rVH3rUGuqPoA-45">
          <mxGeometry relative="1" as="geometry" />
        </mxCell>
      </root>
    </mxGraphModel>
  </diagram>
</mxfile>
